# xmcd
#
# Track frame offsets:
#	150
#	13755
#	28995
#	43488
#	61424
#	74273
#	92937
#	107670
#	122905
#	138430
#	160904
#
# Disc length: 2382 seconds
#
# Revision: 0
# Processed by: cddbd v1.5.1PL0 Copyright (c) Steve Scherf et al.
# Submitted via: dBpowerAMP V4.0
#
DISCID=a3094c0b
DTITLE=Jeanette - Colección "Grandes"
DYEAR=2003
DGENRE=
TTITLE0=01. Seguiré amando
TTITLE1=02. ¿Porqué te vas?
TTITLE2=03. Soy rebelde
TTITLE3=04. Estoy triste
TTITLE4=05. No digas nada
TTITLE5=06. Palabras, promesas
TTITLE6=07. El es distinto a ti
TTITLE7=08. Oye papá, oye mamá
TTITLE8=09. ¿Que le han hecho a mi canción, mamá?
TTITLE9=10. Amanecer
TTITLE10=DATA
EXTD=
EXTT0=
EXTT1=
EXTT2=
EXTT3=
EXTT4=
EXTT5=
EXTT6=
EXTT7=
EXTT8=
EXTT9=
EXTT10=
PLAYORDER=
